<!--?xml version="1.0" encoding="utf-8"?-->
<!-- Generator: Adobe Illustrator 25.2.3, SVG Export Plug-In . SVG Version: 6.00 Build 0)  -->
<svg version="1.1" id="_x33_" xmlns="http://www.w3.org/2000/svg" xmlns:xlink="http://www.w3.org/1999/xlink" x="0px" y="0px" viewBox="0 0 800 224.613" style="enable-background:new 0 0 800 224.613;" xml:space="preserve">
<style type="text/css">
	.stblack{fill:#000000;}
	.st0{fill:#60ed9a;}
</style>
<g>
	<polygon class="st0" points="67.434,20.492 39.21,108.629 103.573,218.998 588.339,205.604 759.892,205.604 780,126.589 
		760.806,45.893 	"></polygon>
	<path class="stblack" d="M49.04,5.615L20,96.296l65.524,112.362l486.084-13.428c1.225-0.034,2.193-1.056,2.158-2.282
		c-0.033-1.226-1.054-2.193-2.28-2.157l-0.001-0.001l-483.45,13.354L24.834,95.767l27.409-85.591l689.999,25.279l18.677,78.521
		l-19.547,76.81l-138.648,0.002c-1.227,0-2.221,0.994-2.221,2.221c0,1.226,0.994,2.221,2.221,2.221l142.102-0.002l20.668-81.219
		l-19.712-82.871L49.04,5.615z"></path>
	<path class="stblack" d="M582.985,186.954c-0.867-0.865-2.273-0.865-3.142,0c-0.867,0.867-0.867,2.275,0,3.143l17.876,17.877
		c0.867,0.866,2.273,0.866,3.142,0c0.867-0.867,0.867-2.274,0-3.143L582.985,186.954z"></path>
</g>
</svg>
