<!--?xml version="1.0" encoding="utf-8"?-->
<!-- Generator: Adobe Illustrator 25.2.3, SVG Export Plug-In . SVG Version: 6.00 Build 0)  -->
<!-- https://fukidesign.com/e1136/ -->
<svg version="1.1" id="_x32_" xmlns="http://www.w3.org/2000/svg" xmlns:xlink="http://www.w3.org/1999/xlink" x="0px" y="0px" viewBox="0 0 800 157.91" style="enable-background:new 0 0 800 157.91;" xml:space="preserve">
<style type="text/css">
	.stblack{fill:#000000;}
	.st0{fill:#edb560;}
</style>
<g>
	<rect x="37.565" y="17.36" class="st0" width="742.435" height="131.544"></rect>
	<path class="stblack" d="M766.178,3.948H20v135.288h609.052c1.034,0,1.871-0.838,1.871-1.872c0-1.035-0.838-1.872-1.871-1.872v-0.002H23.744V7.691
		h738.69v127.802H663.33c-1.035,0-1.872,0.838-1.872,1.872c0,1.034,0.838,1.872,1.872,1.872l102.849-0.002V3.948z"></path>
	<path class="stblack" d="M660.879,153.414c0.732-0.731,0.732-1.916,0-2.648l-19.654-19.656c-0.732-0.732-1.917-0.732-2.649,0s-0.732,1.916,0,2.648
		l19.655,19.655C658.961,154.145,660.147,154.145,660.879,153.414z"></path>
</g>
</svg>
